<?xml version="1.0" standalone="no"?>
<!DOCTYPE svg PUBLIC "-//W3C//DTD SVG 20010904//EN"
 "http://www.w3.org/TR/2001/REC-SVG-20010904/DTD/svg10.dtd">
<svg version="1.0" xmlns="http://www.w3.org/2000/svg"
 width="520.000000pt" height="200.000000pt" viewBox="0 0 520.000000 200.000000"
 preserveAspectRatio="xMidYMid meet">

<g transform="translate(0.000000,200.000000) scale(0.100000,-0.100000)"
fill="#000000" stroke="none">
<path d="M287 1683 c-4 -3 -7 -90 -7 -192 l0 -186 26 45 c14 25 32 56 41 69
l15 23 82 -81 82 -82 86 85 85 84 -78 78 c-44 43 -79 81 -79 84 0 4 28 23 62
43 l63 37 -186 0 c-102 0 -189 -3 -192 -7z"/>
<path d="M1329 1660 c92 -51 92 -43 0 -136 -46 -46 -81 -85 -78 -87 50 -37
111 -94 130 -122 13 -19 28 -35 34 -35 5 0 44 35 87 77 50 50 81 74 87 68 6
-6 24 -35 40 -65 l31 -55 0 193 0 192 -192 0 -193 0 54 -30z"/>
<path d="M1385 690 c-22 -32 -82 -89 -134 -127 -3 -2 33 -41 79 -88 l83 -83
-45 -29 c-25 -15 -54 -33 -64 -40 -15 -9 20 -12 169 -12 l187 -1 0 193 0 192
-31 -55 c-16 -30 -34 -59 -40 -65 -6 -6 -39 20 -92 73 l-84 83 -28 -41z"/>
<path d="M445 640 c-44 -44 -83 -76 -86 -72 -4 4 -24 34 -44 67 l-35 60 2
-190 3 -190 190 -2 190 -3 -62 36 c-35 19 -63 38 -63 42 0 4 35 43 79 86 l78
78 -85 84 c-47 46 -86 84 -86 84 -1 0 -37 -36 -81 -80z"/>
</g>
</svg>
